# xmcd CD database file
#
# Track frame offsets:
#	150
#	1057
#	63625
#	97535
#	127925
#	160465
#
# Disc length: 2449 seconds
#
# Revision: 0
# Processed by: cddbd v1.5.2PL0 Copyright (c) Steve Scherf et al.
# Submitted via: CDex 1.77
#
DISCID=3b098f06
DTITLE=Anatoly Vapirov - To Miami And Back
DYEAR=1996
DGENRE=Jazz
TTITLE0=Intro 
TTITLE1=Morning Over Key West 
TTITLE2=With Sandals On Along Miami Beach
TTITLE3=Romancero 
TTITLE4=Balkan-I-Ada (In Balkan Way)
TTITLE5=Lithurgy Of The Doomed
EXTD=YEAR: 1996
EXTT0=
EXTT1=
EXTT2=
EXTT3=
EXTT4=
EXTT5=
PLAYORDER=
